{"glyphs":{"0":{"ha":771,"x_min":0,"x_max":617,"o":"m 154 0 l 154 154 l 463 154 l 463 0 l 154 0 m 0 154 l 0 926 l 154 926 l 154 154 l 0 154 m 463 154 l 463 926 l 617 926 l 617 154 l 463 154 m 154 926 l 154 1080 l 463 1080 l 463 926 l 154 926 z "},"1":{"ha":463,"x_min":0,"x_max":309,"o":"m 154 0 l 154 771 l 0 771 l 0 926 l 154 926 l 154 1080 l 309 1080 l 309 0 l 154 0 z "},"2":{"ha":771,"x_min":0,"x_max":617,"o":"m 0 0 l 0 309 l 154 309 l 154 154 l 463 154 l 463 309 l 617 309 l 617 0 l 0 0 m 154 309 l 154 463 l 309 463 l 309 309 l 154 309 m 309 463 l 309 617 l 463 617 l 463 463 l 309 463 m 0 771 l 0 926 l 154 926 l 154 771 l 0 771 m 463 617 l 463 926 l 617 926 l 617 617 l 463 617 m 154 926 l 154 1080 l 463 1080 l 463 926 l 154 926 z "},"3":{"ha":771,"x_min":0,"x_max":617,"o":"m 154 0 l 154 154 l 463 154 l 463 0 l 154 0 m 0 154 l 0 309 l 154 309 l 154 154 l 0 154 m 463 154 l 463 463 l 617 463 l 617 154 l 463 154 m 309 463 l 309 617 l 463 617 l 463 463 l 309 463 m 0 771 l 0 926 l 154 926 l 154 771 l 0 771 m 463 617 l 463 926 l 617 926 l 617 617 l 463 617 m 154 926 l 154 1080 l 463 1080 l 463 926 l 154 926 z "},"4":{"ha":771,"x_min":0,"x_max":617,"o":"m 154 0 l 154 154 l 309 154 l 309 309 l 0 309 l 0 617 l 154 617 l 154 463 l 309 463 l 309 617 l 154 617 l 154 926 l 309 926 l 309 1080 l 463 1080 l 463 463 l 617 463 l 617 309 l 463 309 l 463 154 l 617 154 l 617 0 l 154 0 z "},"5":{"ha":771,"x_min":0,"x_max":617,"o":"m 154 0 l 154 154 l 463 154 l 463 0 l 154 0 m 0 154 l 0 309 l 154 309 l 154 154 l 0 154 m 463 154 l 463 617 l 617 617 l 617 154 l 463 154 m 0 617 l 0 1080 l 617 1080 l 617 926 l 154 926 l 154 771 l 463 771 l 463 617 l 0 617 z "},"6":{"ha":771,"x_min":0,"x_max":617,"o":"m 154 0 l 154 154 l 463 154 l 463 0 l 154 0 m 463 154 l 463 463 l 617 463 l 617 154 l 463 154 m 0 154 l 0 926 l 154 926 l 154 617 l 463 617 l 463 463 l 154 463 l 154 154 l 0 154 m 463 771 l 463 926 l 617 926 l 617 771 l 463 771 m 154 926 l 154 1080 l 463 1080 l 463 926 l 154 926 z "},"7":{"ha":771,"x_min":0,"x_max":617,"o":"m 154 0 l 154 309 l 309 309 l 309 0 l 154 0 m 309 309 l 309 617 l 463 617 l 463 309 l 309 309 m 463 617 l 463 926 l 154 926 l 154 771 l 0 771 l 0 1080 l 617 1080 l 617 617 l 463 617 z "},"8":{"ha":771,"x_min":0,"x_max":617,"o":"m 154 0 l 154 154 l 463 154 l 463 0 l 154 0 m 0 154 l 0 463 l 154 463 l 154 154 l 0 154 m 463 154 l 463 463 l 617 463 l 617 154 l 463 154 m 154 463 l 154 617 l 463 617 l 463 463 l 154 463 m 0 617 l 0 926 l 154 926 l 154 617 l 0 617 m 463 617 l 463 926 l 617 926 l 617 617 l 463 617 m 154 926 l 154 1080 l 463 1080 l 463 926 l 154 926 z "},"9":{"ha":771,"x_min":0,"x_max":617,"o":"m 154 0 l 154 154 l 463 154 l 463 0 l 154 0 m 0 154 l 0 309 l 154 309 l 154 154 l 0 154 m 0 617 l 0 926 l 154 926 l 154 617 l 0 617 m 463 154 l 463 463 l 154 463 l 154 617 l 463 617 l 463 926 l 617 926 l 617 154 l 463 154 m 154 926 l 154 1080 l 463 1080 l 463 926 l 154 926 z "}," ":{"ha":309,"x_min":0,"x_max":0,"o":""},"'":{"ha":309,"x_min":0,"x_max":154,"o":"m 0 771 l 0 1080 l 154 1080 l 154 771 l 0 771 z "},",":{"ha":309,"x_min":0,"x_max":154,"o":"m 0 -154 l 0 154 l 154 154 l 154 -154 l 0 -154 z "},"-":{"ha":617,"x_min":154,"x_max":463,"o":"m 154 463 l 154 617 l 463 617 l 463 463 l 154 463 z "},".":{"ha":309,"x_min":0,"x_max":154,"o":"m 0 0 l 0 154 l 154 154 l 154 0 l 0 0 z "},"/":{"ha":617,"x_min":154,"x_max":463,"o":"m 154 -154 l 154 463 l 309 463 l 309 -154 l 154 -154 m 309 463 l 309 1080 l 463 1080 l 463 463 l 309 463 z "},"<":{"ha":2778,"x_min":0,"x_max":2623,"o":"m 154 0 l 154 154 l 309 154 l 309 0 l 154 0 m 463 0 l 463 154 l 617 154 l 617 0 l 463 0 m 1543 0 l 1543 154 l 1851 154 l 1851 0 l 1543 0 m 1851 154 l 1851 309 l 2006 309 l 2006 154 l 1851 154 m 1697 309 l 1697 463 l 1851 463 l 1851 309 l 1697 309 m 1543 463 l 1543 617 l 1697 617 l 1697 463 l 1543 463 m 0 154 l 0 771 l 154 771 l 154 154 l 0 154 m 309 154 l 309 771 l 463 771 l 463 154 l 309 154 m 617 154 l 617 771 l 771 771 l 771 154 l 617 154 m 926 0 l 926 771 l 1389 771 l 1389 617 l 1080 617 l 1080 463 l 1234 463 l 1234 309 l 1080 309 l 1080 154 l 1389 154 l 1389 0 l 926 0 m 1697 617 l 1697 771 l 2006 771 l 2006 617 l 1697 617 m 2315 0 l 2315 617 l 2160 617 l 2160 771 l 2623 771 l 2623 617 l 2469 617 l 2469 0 l 2315 0 z "},"=":{"ha":1234,"x_min":0,"x_max":1080,"o":"m 926 154 l 926 463 l 154 463 l 154 154 l 926 154 m 926 617 l 926 926 l 154 926 l 154 617 l 926 617 m 0 -309 l 0 1389 l 154 1389 l 154 1080 l 926 1080 l 926 1389 l 1080 1389 l 1080 -309 l 926 -309 l 926 0 l 154 0 l 154 -309 l 0 -309 z "},">":{"ha":2469,"x_min":0,"x_max":2315,"o":"m 1234 0 l 1234 154 l 1543 154 l 1543 0 l 1234 0 m 1543 154 l 1543 309 l 1697 309 l 1697 154 l 1543 154 m 1389 309 l 1389 463 l 1543 463 l 1543 309 l 1389 309 m 617 0 l 617 617 l 771 617 l 771 309 l 926 309 l 926 617 l 1080 617 l 1080 0 l 926 0 l 926 154 l 771 154 l 771 0 l 617 0 m 1234 463 l 1234 617 l 1389 617 l 1389 463 l 1234 463 m 0 0 l 0 771 l 463 771 l 463 617 l 154 617 l 154 463 l 309 463 l 309 309 l 154 309 l 154 154 l 463 154 l 463 0 l 0 0 m 771 617 l 771 771 l 926 771 l 926 617 l 771 617 m 1389 617 l 1389 771 l 1697 771 l 1697 617 l 1389 617 m 2006 0 l 2006 617 l 1851 617 l 1851 771 l 2315 771 l 2315 617 l 2160 617 l 2160 0 l 2006 0 z "},"A":{"ha":1234,"x_min":0,"x_max":1080,"o":"m 0 0 l 0 154 l 154 154 l 154 463 l 309 463 l 309 771 l 463 771 l 463 463 l 617 463 l 617 771 l 771 771 l 771 463 l 926 463 l 926 154 l 1080 154 l 1080 0 l 617 0 l 617 154 l 771 154 l 771 309 l 309 309 l 309 154 l 463 154 l 463 0 l 0 0 m 463 771 l 463 1080 l 617 1080 l 617 771 l 463 771 z "},"B":{"ha":1080,"x_min":0,"x_max":926,"o":"m 771 154 l 771 463 l 926 463 l 926 154 l 771 154 m 771 617 l 771 926 l 926 926 l 926 617 l 771 617 m 0 0 l 0 154 l 154 154 l 154 926 l 0 926 l 0 1080 l 771 1080 l 771 926 l 309 926 l 309 617 l 771 617 l 771 463 l 309 463 l 309 154 l 771 154 l 771 0 l 0 0 z "},"C":{"ha":926,"x_min":0,"x_max":771,"o":"m 154 0 l 154 154 l 617 154 l 617 0 l 154 0 m 617 154 l 617 309 l 771 309 l 771 154 l 617 154 m 0 154 l 0 926 l 154 926 l 154 154 l 0 154 m 617 771 l 617 926 l 154 926 l 154 1080 l 771 1080 l 771 771 l 617 771 z "},"D":{"ha":1080,"x_min":0,"x_max":926,"o":"m 771 154 l 771 926 l 926 926 l 926 154 l 771 154 m 0 0 l 0 154 l 154 154 l 154 926 l 0 926 l 0 1080 l 771 1080 l 771 926 l 309 926 l 309 154 l 771 154 l 771 0 l 0 0 z "},"E":{"ha":926,"x_min":0,"x_max":771,"o":"m 0 0 l 0 154 l 154 154 l 154 926 l 0 926 l 0 1080 l 771 1080 l 771 771 l 617 771 l 617 926 l 309 926 l 309 617 l 617 617 l 617 463 l 309 463 l 309 154 l 617 154 l 617 309 l 771 309 l 771 0 l 0 0 z "},"F":{"ha":926,"x_min":0,"x_max":771,"o":"m 0 0 l 0 154 l 154 154 l 154 926 l 0 926 l 0 1080 l 771 1080 l 771 771 l 617 771 l 617 926 l 309 926 l 309 617 l 617 617 l 617 463 l 309 463 l 309 154 l 463 154 l 463 0 l 0 0 z "},"G":{"ha":1080,"x_min":0,"x_max":926,"o":"m 154 0 l 154 154 l 771 154 l 771 463 l 463 463 l 463 617 l 926 617 l 926 0 l 154 0 m 0 154 l 0 926 l 154 926 l 154 154 l 0 154 m 771 771 l 771 926 l 154 926 l 154 1080 l 926 1080 l 926 771 l 771 771 z "},"H":{"ha":1080,"x_min":0,"x_max":926,"o":"m 617 154 l 617 463 l 309 463 l 309 154 l 617 154 m 617 617 l 617 926 l 309 926 l 309 617 l 617 617 m 0 0 l 0 154 l 154 154 l 154 926 l 0 926 l 0 1080 l 926 1080 l 926 926 l 771 926 l 771 154 l 926 154 l 926 0 l 0 0 z "},"I":{"ha":617,"x_min":0,"x_max":463,"o":"m 0 0 l 0 154 l 154 154 l 154 926 l 0 926 l 0 1080 l 463 1080 l 463 926 l 309 926 l 309 154 l 463 154 l 463 0 l 0 0 z "},"J":{"ha":771,"x_min":0,"x_max":617,"o":"m 0 0 l 0 309 l 154 309 l 154 154 l 309 154 l 309 0 l 0 0 m 309 154 l 309 926 l 154 926 l 154 1080 l 617 1080 l 617 926 l 463 926 l 463 154 l 309 154 z "},"K":{"ha":1080,"x_min":0,"x_max":926,"o":"m 617 0 l 617 309 l 771 309 l 771 154 l 926 154 l 926 0 l 617 0 m 463 309 l 463 463 l 617 463 l 617 309 l 463 309 m 463 617 l 463 771 l 617 771 l 617 617 l 463 617 m 0 0 l 0 154 l 154 154 l 154 926 l 0 926 l 0 1080 l 463 1080 l 463 926 l 309 926 l 309 617 l 463 617 l 463 463 l 309 463 l 309 154 l 463 154 l 463 0 l 0 0 m 617 771 l 617 1080 l 926 1080 l 926 926 l 771 926 l 771 771 l 617 771 z "},"L":{"ha":926,"x_min":0,"x_max":771,"o":"m 0 0 l 0 154 l 154 154 l 154 926 l 0 926 l 0 1080 l 617 1080 l 617 926 l 309 926 l 309 154 l 617 154 l 617 309 l 771 309 l 771 0 l 0 0 z "},"M":{"ha":1389,"x_min":0,"x_max":1234,"o":"m 463 309 l 463 617 l 771 617 l 771 309 l 463 309 m 0 0 l 0 154 l 154 154 l 154 926 l 0 926 l 0 1080 l 309 1080 l 309 926 l 463 926 l 463 617 l 309 617 l 309 154 l 463 154 l 463 0 l 0 0 m 771 0 l 771 154 l 926 154 l 926 617 l 771 617 l 771 926 l 926 926 l 926 1080 l 1234 1080 l 1234 926 l 1080 926 l 1080 154 l 1234 154 l 1234 0 l 771 0 z "},"N":{"ha":1080,"x_min":0,"x_max":926,"o":"m 0 0 l 0 154 l 154 154 l 154 926 l 0 926 l 0 1080 l 309 1080 l 309 926 l 463 926 l 463 617 l 309 617 l 309 154 l 463 154 l 463 0 l 0 0 m 617 0 l 617 309 l 463 309 l 463 617 l 617 617 l 617 1080 l 926 1080 l 926 926 l 771 926 l 771 0 l 617 0 z "},"O":{"ha":1080,"x_min":0,"x_max":926,"o":"m 154 0 l 154 154 l 771 154 l 771 0 l 154 0 m 0 154 l 0 926 l 154 926 l 154 154 l 0 154 m 771 154 l 771 926 l 926 926 l 926 154 l 771 154 m 154 926 l 154 1080 l 771 1080 l 771 926 l 154 926 z "},"P":{"ha":926,"x_min":0,"x_max":771,"o":"m 617 617 l 617 926 l 771 926 l 771 617 l 617 617 m 0 0 l 0 154 l 154 154 l 154 926 l 0 926 l 0 1080 l 617 1080 l 617 926 l 309 926 l 309 617 l 617 617 l 617 463 l 309 463 l 309 154 l 463 154 l 463 0 l 0 0 z "},"Q":{"ha":1080,"x_min":0,"x_max":926,"o":"m 463 -309 l 463 -154 l 309 -154 l 309 0 l 154 0 l 154 154 l 771 154 l 771 0 l 617 0 l 617 -154 l 771 -154 l 771 -309 l 463 -309 m 0 154 l 0 926 l 154 926 l 154 154 l 0 154 m 771 154 l 771 926 l 926 926 l 926 154 l 771 154 m 154 926 l 154 1080 l 771 1080 l 771 926 l 154 926 z "},"R":{"ha":926,"x_min":0,"x_max":771,"o":"m 617 0 l 617 309 l 771 309 l 771 0 l 617 0 m 617 617 l 617 926 l 771 926 l 771 617 l 617 617 m 0 0 l 0 154 l 154 154 l 154 926 l 0 926 l 0 1080 l 617 1080 l 617 926 l 309 926 l 309 617 l 617 617 l 617 309 l 463 309 l 463 463 l 309 463 l 309 154 l 463 154 l 463 0 l 0 0 z "},"S":{"ha":771,"x_min":0,"x_max":617,"o":"m 0 0 l 0 309 l 154 309 l 154 154 l 463 154 l 463 0 l 0 0 m 463 154 l 463 463 l 617 463 l 617 154 l 463 154 m 154 463 l 154 617 l 463 617 l 463 463 l 154 463 m 0 617 l 0 926 l 154 926 l 154 617 l 0 617 m 463 771 l 463 926 l 154 926 l 154 1080 l 617 1080 l 617 771 l 463 771 z "},"T":{"ha":926,"x_min":0,"x_max":771,"o":"m 154 0 l 154 154 l 309 154 l 309 926 l 154 926 l 154 771 l 0 771 l 0 1080 l 771 1080 l 771 771 l 617 771 l 617 926 l 463 926 l 463 154 l 617 154 l 617 0 l 154 0 z "},"U":{"ha":926,"x_min":0,"x_max":771,"o":"m 154 0 l 154 154 l 617 154 l 617 0 l 154 0 m 0 154 l 0 1080 l 154 1080 l 154 154 l 0 154 m 617 154 l 617 1080 l 771 1080 l 771 154 l 617 154 z "},"V":{"ha":1080,"x_min":0,"x_max":926,"o":"m 309 0 l 309 309 l 617 309 l 617 0 l 309 0 m 154 309 l 154 771 l 309 771 l 309 309 l 154 309 m 617 309 l 617 771 l 771 771 l 771 309 l 617 309 m 0 771 l 0 1080 l 309 1080 l 309 926 l 154 926 l 154 771 l 0 771 m 771 771 l 771 926 l 617 926 l 617 1080 l 926 1080 l 926 771 l 771 771 z "},"W":{"ha":1080,"x_min":0,"x_max":926,"o":"m 154 0 l 154 309 l 309 309 l 309 0 l 154 0 m 617 0 l 617 309 l 771 309 l 771 0 l 617 0 m 309 309 l 309 617 l 617 617 l 617 309 l 309 309 m 0 309 l 0 1080 l 309 1080 l 309 926 l 154 926 l 154 309 l 0 309 m 771 309 l 771 926 l 617 926 l 617 1080 l 926 1080 l 926 309 l 771 309 z "},"X":{"ha":1080,"x_min":0,"x_max":926,"o":"m 0 0 l 0 154 l 154 154 l 154 309 l 309 309 l 309 0 l 0 0 m 617 0 l 617 309 l 771 309 l 771 154 l 926 154 l 926 0 l 617 0 m 309 309 l 309 771 l 617 771 l 617 309 l 309 309 m 154 771 l 154 926 l 0 926 l 0 1080 l 309 1080 l 309 771 l 154 771 m 617 771 l 617 1080 l 926 1080 l 926 926 l 771 926 l 771 771 l 617 771 z "},"Y":{"ha":1234,"x_min":0,"x_max":1080,"o":"m 309 0 l 309 154 l 463 154 l 463 617 l 617 617 l 617 154 l 771 154 l 771 0 l 309 0 m 309 617 l 309 771 l 463 771 l 463 617 l 309 617 m 617 617 l 617 771 l 771 771 l 771 617 l 617 617 m 154 771 l 154 926 l 0 926 l 0 1080 l 309 1080 l 309 771 l 154 771 m 771 771 l 771 1080 l 1080 1080 l 1080 926 l 926 926 l 926 771 l 771 771 z "},"Z":{"ha":771,"x_min":0,"x_max":617,"o":"m 0 0 l 0 463 l 154 463 l 154 154 l 463 154 l 463 309 l 617 309 l 617 0 l 0 0 m 154 463 l 154 617 l 309 617 l 309 463 l 154 463 m 309 617 l 309 771 l 463 771 l 463 617 l 309 617 m 0 771 l 0 1080 l 617 1080 l 617 771 l 463 771 l 463 926 l 154 926 l 154 771 l 0 771 z "},"[":{"ha":2932,"x_min":0,"x_max":2778,"o":"m 0 0 l 0 154 l 309 154 l 309 0 l 0 0 m 309 154 l 309 309 l 463 309 l 463 154 l 309 154 m 926 154 l 926 309 l 771 309 l 771 154 l 926 154 m 154 309 l 154 463 l 309 463 l 309 309 l 154 309 m 617 0 l 617 463 l 1080 463 l 1080 0 l 617 0 m 1234 0 l 1234 463 l 1389 463 l 1389 154 l 1543 154 l 1543 463 l 1697 463 l 1697 0 l 1234 0 m 0 463 l 0 617 l 154 617 l 154 463 l 0 463 m 1851 0 l 1851 617 l 2006 617 l 2006 463 l 2160 463 l 2160 309 l 2006 309 l 2006 154 l 2160 154 l 2160 0 l 1851 0 m 154 617 l 154 771 l 463 771 l 463 617 l 154 617 m 2315 0 l 2315 771 l 2469 771 l 2469 463 l 2778 463 l 2778 0 l 2623 0 l 2623 309 l 2469 309 l 2469 0 l 2315 0 z "},"]":{"ha":2932,"x_min":0,"x_max":2778,"o":"m 1080 154 l 1080 309 l 926 309 l 926 154 l 1080 154 m 771 0 l 771 463 l 1234 463 l 1234 0 l 771 0 m 1389 0 l 1389 463 l 1697 463 l 1697 309 l 1543 309 l 1543 0 l 1389 0 m 1851 0 l 1851 617 l 2006 617 l 2006 463 l 2160 463 l 2160 309 l 2006 309 l 2006 154 l 2160 154 l 2160 0 l 1851 0 m 0 0 l 0 771 l 154 771 l 154 617 l 309 617 l 309 463 l 154 463 l 154 0 l 0 0 m 463 0 l 463 154 l 309 154 l 309 463 l 463 463 l 463 771 l 617 771 l 617 0 l 463 0 m 2315 0 l 2315 771 l 2469 771 l 2469 463 l 2778 463 l 2778 0 l 2623 0 l 2623 309 l 2469 309 l 2469 0 l 2315 0 z "},"a":{"ha":771,"x_min":0,"x_max":617,"o":"m 0 154 l 0 309 l 154 309 l 154 154 l 0 154 m 154 0 l 154 154 l 463 154 l 463 309 l 154 309 l 154 463 l 463 463 l 463 617 l 617 617 l 617 0 l 154 0 m 154 617 l 154 771 l 463 771 l 463 617 l 154 617 z "},"b":{"ha":926,"x_min":0,"x_max":771,"o":"m 309 0 l 309 154 l 617 154 l 617 0 l 309 0 m 617 154 l 617 617 l 771 617 l 771 154 l 617 154 m 154 154 l 154 926 l 0 926 l 0 1080 l 309 1080 l 309 771 l 617 771 l 617 617 l 309 617 l 309 154 l 154 154 z "},"c":{"ha":771,"x_min":0,"x_max":617,"o":"m 154 0 l 154 154 l 463 154 l 463 0 l 154 0 m 463 154 l 463 309 l 617 309 l 617 154 l 463 154 m 0 154 l 0 617 l 154 617 l 154 154 l 0 154 m 463 463 l 463 617 l 617 617 l 617 463 l 463 463 m 154 617 l 154 771 l 463 771 l 463 617 l 154 617 z "},"d":{"ha":771,"x_min":0,"x_max":617,"o":"m 0 154 l 0 617 l 154 617 l 154 154 l 0 154 m 154 0 l 154 154 l 463 154 l 463 617 l 154 617 l 154 771 l 463 771 l 463 926 l 309 926 l 309 1080 l 617 1080 l 617 0 l 154 0 z "},"e":{"ha":771,"x_min":0,"x_max":617,"o":"m 154 0 l 154 154 l 463 154 l 463 0 l 154 0 m 0 154 l 0 617 l 154 617 l 154 463 l 463 463 l 463 617 l 617 617 l 617 309 l 154 309 l 154 154 l 0 154 m 154 617 l 154 771 l 463 771 l 463 617 l 154 617 z "},"f":{"ha":463,"x_min":0,"x_max":309,"o":"m 0 0 l 0 926 l 154 926 l 154 617 l 309 617 l 309 463 l 154 463 l 154 154 l 309 154 l 309 0 l 0 0 m 154 926 l 154 1080 l 309 1080 l 309 926 l 154 926 z "},"g":{"ha":771,"x_min":0,"x_max":617,"o":"m 154 -309 l 154 -154 l 463 -154 l 463 -309 l 154 -309 m 154 0 l 154 154 l 309 154 l 309 0 l 154 0 m 0 154 l 0 617 l 154 617 l 154 154 l 0 154 m 463 -154 l 463 154 l 309 154 l 309 309 l 463 309 l 463 617 l 154 617 l 154 771 l 617 771 l 617 -154 l 463 -154 z "},"h":{"ha":926,"x_min":0,"x_max":771,"o":"m 617 0 l 617 617 l 771 617 l 771 0 l 617 0 m 463 617 l 463 771 l 617 771 l 617 617 l 463 617 m 154 0 l 154 926 l 0 926 l 0 1080 l 309 1080 l 309 617 l 463 617 l 463 463 l 309 463 l 309 0 l 154 0 z "},"i":{"ha":309,"x_min":0,"x_max":154,"o":"m 0 0 l 0 771 l 154 771 l 154 0 l 0 0 m 0 926 l 0 1080 l 154 1080 l 154 926 l 0 926 z "},"j":{"ha":617,"x_min":0,"x_max":463,"o":"m 0 -154 l 0 154 l 154 154 l 154 0 l 309 0 l 309 -154 l 0 -154 m 309 0 l 309 771 l 463 771 l 463 0 l 309 0 m 309 926 l 309 1080 l 463 1080 l 463 926 l 309 926 z "},"k":{"ha":926,"x_min":0,"x_max":771,"o":"m 463 0 l 463 309 l 617 309 l 617 154 l 771 154 l 771 0 l 463 0 m 463 617 l 463 771 l 617 771 l 617 617 l 463 617 m 154 0 l 154 926 l 0 926 l 0 1080 l 309 1080 l 309 617 l 463 617 l 463 309 l 309 309 l 309 0 l 154 0 z "},"l":{"ha":309,"x_min":0,"x_max":154,"o":"m 0 0 l 0 1080 l 154 1080 l 154 0 l 0 0 z "},"m":{"ha":1389,"x_min":0,"x_max":1234,"o":"m 617 0 l 617 617 l 926 617 l 926 463 l 771 463 l 771 0 l 617 0 m 1080 0 l 1080 617 l 1234 617 l 1234 0 l 1080 0 m 154 0 l 154 617 l 0 617 l 0 771 l 309 771 l 309 617 l 463 617 l 463 463 l 309 463 l 309 0 l 154 0 m 463 617 l 463 771 l 617 771 l 617 617 l 463 617 m 926 617 l 926 771 l 1080 771 l 1080 617 l 926 617 z "},"n":{"ha":926,"x_min":0,"x_max":771,"o":"m 617 0 l 617 617 l 771 617 l 771 0 l 617 0 m 154 0 l 154 617 l 0 617 l 0 771 l 309 771 l 309 617 l 463 617 l 463 463 l 309 463 l 309 0 l 154 0 m 463 617 l 463 771 l 617 771 l 617 617 l 463 617 z "},"o":{"ha":771,"x_min":0,"x_max":617,"o":"m 154 0 l 154 154 l 463 154 l 463 0 l 154 0 m 0 154 l 0 617 l 154 617 l 154 154 l 0 154 m 463 154 l 463 617 l 617 617 l 617 154 l 463 154 m 154 617 l 154 771 l 463 771 l 463 617 l 154 617 z "},"p":{"ha":926,"x_min":0,"x_max":771,"o":"m 617 154 l 617 617 l 771 617 l 771 154 l 617 154 m 0 -309 l 0 -154 l 154 -154 l 154 617 l 0 617 l 0 771 l 309 771 l 309 617 l 463 617 l 463 463 l 309 463 l 309 154 l 617 154 l 617 0 l 309 0 l 309 -154 l 463 -154 l 463 -309 l 0 -309 m 463 617 l 463 771 l 617 771 l 617 617 l 463 617 z "},"q":{"ha":771,"x_min":0,"x_max":617,"o":"m 0 154 l 0 617 l 154 617 l 154 154 l 0 154 m 463 -309 l 463 0 l 154 0 l 154 154 l 463 154 l 463 617 l 154 617 l 154 771 l 617 771 l 617 -309 l 463 -309 z "},"r":{"ha":463,"x_min":0,"x_max":309,"o":"m 0 0 l 0 617 l 154 617 l 154 0 l 0 0 m 154 617 l 154 771 l 309 771 l 309 617 l 154 617 z "},"s":{"ha":617,"x_min":0,"x_max":463,"o":"m 0 0 l 0 154 l 309 154 l 309 0 l 0 0 m 309 154 l 309 309 l 463 309 l 463 154 l 309 154 m 154 309 l 154 463 l 309 463 l 309 309 l 154 309 m 0 463 l 0 617 l 154 617 l 154 463 l 0 463 m 154 617 l 154 771 l 463 771 l 463 617 l 154 617 z "},"t":{"ha":463,"x_min":0,"x_max":309,"o":"m 154 0 l 154 154 l 309 154 l 309 0 l 154 0 m 0 154 l 0 926 l 154 926 l 154 771 l 309 771 l 309 617 l 154 617 l 154 154 l 0 154 z "},"u":{"ha":771,"x_min":0,"x_max":617,"o":"m 154 0 l 154 154 l 309 154 l 309 0 l 154 0 m 0 154 l 0 771 l 154 771 l 154 154 l 0 154 m 463 0 l 463 154 l 309 154 l 309 309 l 463 309 l 463 771 l 617 771 l 617 0 l 463 0 z "},"v":{"ha":771,"x_min":0,"x_max":617,"o":"m 154 0 l 154 309 l 463 309 l 463 0 l 154 0 m 0 309 l 0 771 l 154 771 l 154 309 l 0 309 m 463 309 l 463 771 l 617 771 l 617 309 l 463 309 z "},"w":{"ha":926,"x_min":0,"x_max":771,"o":"m 154 0 l 154 309 l 309 309 l 309 0 l 154 0 m 463 0 l 463 309 l 617 309 l 617 0 l 463 0 m 309 309 l 309 617 l 463 617 l 463 309 l 309 309 m 0 309 l 0 771 l 154 771 l 154 309 l 0 309 m 617 309 l 617 771 l 771 771 l 771 309 l 617 309 z "},"x":{"ha":771,"x_min":0,"x_max":617,"o":"m 0 0 l 0 309 l 154 309 l 154 0 l 0 0 m 463 0 l 463 309 l 617 309 l 617 0 l 463 0 m 154 309 l 154 463 l 463 463 l 463 309 l 154 309 m 0 463 l 0 771 l 154 771 l 154 463 l 0 463 m 463 463 l 463 771 l 617 771 l 617 463 l 463 463 z "},"y":{"ha":771,"x_min":0,"x_max":617,"o":"m 0 -309 l 0 -154 l 309 -154 l 309 -309 l 0 -309 m 309 -154 l 309 0 l 154 0 l 154 154 l 463 154 l 463 -154 l 309 -154 m 0 154 l 0 771 l 154 771 l 154 154 l 0 154 m 463 154 l 463 771 l 617 771 l 617 154 l 463 154 z "},"z":{"ha":617,"x_min":0,"x_max":463,"o":"m 0 0 l 0 309 l 154 309 l 154 154 l 463 154 l 463 0 l 0 0 m 154 309 l 154 463 l 309 463 l 309 309 l 154 309 m 309 463 l 309 617 l 0 617 l 0 771 l 463 771 l 463 463 l 309 463 z "}}}
